<?xml version="1.0" encoding="UTF-8" standalone="no"?>
<!DOCTYPE svg PUBLIC "-//W3C//DTD SVG 1.1//EN" "http://www.w3.org/Graphics/SVG/1.1/DTD/svg11.dtd">
<svg width="100%" height="100%" viewBox="0 0 184 24" version="1.1" xmlns="http://www.w3.org/2000/svg" xmlns:xlink="http://www.w3.org/1999/xlink" xml:space="preserve" xmlns:serif="http://www.serif.com/" style="fill-rule:evenodd;clip-rule:evenodd;stroke-linejoin:round;stroke-miterlimit:2;">
    <path d="M181.545,0.032C180.636,0.032 179.822,0.19 179.089,0.523L179.089,5.79C179.089,9.946 177.382,12.008 173.986,12.008C170.589,12.008 168.883,9.93 168.883,5.79L168.883,0.523C168.149,0.19 167.336,0.032 166.428,0.032C165.519,0.032 164.706,0.19 163.972,0.523L163.972,6.091C163.972,9.121 164.626,11.485 165.95,13.182C167.257,14.879 169.123,15.942 171.53,16.354L171.53,23.508C172.264,23.841 173.077,24 173.986,24C174.895,24 175.708,23.841 176.441,23.508L176.441,16.354C178.85,15.942 180.699,14.879 182.023,13.182C183.33,11.485 184,9.121 184,6.091L184,0.523C183.267,0.19 182.453,0.032 181.545,0.032ZM149.126,12.214L149.126,4.632L151.518,4.632C153.065,4.632 154.213,4.933 154.946,5.552C155.68,6.171 156.062,7.122 156.062,8.423C156.062,9.724 155.696,10.676 154.946,11.294C154.213,11.913 153.065,12.214 151.518,12.214L149.126,12.214ZM144.231,0.333L144.231,23.397C144.964,23.73 145.778,23.889 146.687,23.889C147.596,23.889 148.409,23.73 149.142,23.397L149.142,16.545L152.028,16.545C154.899,16.545 157.131,15.831 158.758,14.403C160.368,12.976 161.181,10.993 161.181,8.439C161.181,5.885 160.368,3.902 158.758,2.475C157.147,1.047 154.899,0.333 152.028,0.333L144.231,0.333ZM128.396,12.214L128.396,4.632L130.788,4.632C132.336,4.632 133.484,4.933 134.217,5.552C134.95,6.171 135.333,7.122 135.333,8.423C135.333,9.724 134.966,10.676 134.217,11.294C133.484,11.913 132.336,12.214 130.788,12.214L128.396,12.214ZM123.501,0.333L123.501,23.397C124.235,23.73 125.048,23.889 125.957,23.889C126.866,23.889 127.679,23.73 128.413,23.397L128.413,16.545L131.299,16.545C134.169,16.545 136.401,15.831 138.028,14.403C139.639,12.976 140.452,10.993 140.452,8.439C140.452,5.885 139.639,3.902 138.028,2.475C136.418,1.047 134.169,0.333 131.299,0.333L123.501,0.333ZM108.671,14.99C107.508,14.99 106.359,14.8 105.227,14.435L107.97,5.346C108.034,5.124 108.114,4.965 108.193,4.886C108.273,4.79 108.384,4.759 108.543,4.759L108.704,4.759C108.863,4.759 108.974,4.79 109.038,4.87C109.102,4.949 109.182,5.108 109.278,5.346L112.052,14.435C110.968,14.8 109.835,14.99 108.671,14.99ZM112.833,0.555C111.239,0.254 109.835,0.095 108.623,0.095C107.427,0.095 106.04,0.254 104.446,0.555L97.43,23.318C97.765,23.508 98.195,23.667 98.722,23.778C99.248,23.889 99.774,23.937 100.316,23.937C101.193,23.937 101.91,23.81 102.436,23.54L103.92,18.607C105.466,19.083 107.045,19.336 108.656,19.336C110.282,19.336 111.844,19.099 113.327,18.607L114.858,23.54C115.385,23.81 116.102,23.937 116.979,23.937C117.537,23.937 118.079,23.889 118.622,23.778C119.164,23.667 119.594,23.508 119.929,23.318L112.833,0.555ZM91.386,0.032C90.477,0.032 89.664,0.19 88.93,0.523L88.93,10.644C87.543,11.326 86.028,11.659 84.402,11.659C82.727,11.659 81.101,11.262 79.538,10.469L79.538,0.523C78.805,0.19 77.992,0.032 77.083,0.032C76.174,0.032 75.36,0.19 74.627,0.523L74.627,23.508C75.36,23.841 76.174,24 77.083,24C77.992,24 78.805,23.841 79.538,23.508L79.538,15.212C81.133,15.736 82.743,16.005 84.402,16.005C85.933,16.005 87.432,15.767 88.93,15.307L88.93,23.508C89.664,23.841 90.477,24 91.386,24C92.295,24 93.109,23.841 93.842,23.508L93.842,0.523C93.109,0.19 92.295,0.032 91.386,0.032ZM61.886,3.363C61.615,2.459 61.232,1.745 60.706,1.206C60.18,0.666 59.478,0.27 58.601,0C57.358,1.079 56.146,1.872 54.95,2.395C53.754,2.919 52.494,3.173 51.186,3.173C49.879,3.173 48.635,2.919 47.423,2.395C46.227,1.872 44.999,1.079 43.772,0C42.895,0.27 42.193,0.666 41.667,1.206C41.141,1.745 40.758,2.459 40.487,3.363C41.539,4.394 42.783,5.266 44.218,5.964C45.637,6.662 47.152,7.154 48.731,7.408L48.731,23.381C49.464,23.715 50.278,23.873 51.186,23.873C52.095,23.873 52.909,23.715 53.642,23.381L53.642,7.408C55.237,7.138 56.736,6.662 58.155,5.964C59.59,5.251 60.818,4.394 61.886,3.363ZM30.489,14.99C29.325,14.99 28.177,14.8 27.044,14.435L29.787,5.346C29.851,5.124 29.93,4.965 29.994,4.886C30.074,4.79 30.186,4.759 30.345,4.759L30.505,4.759C30.664,4.759 30.776,4.79 30.839,4.87C30.903,4.949 30.983,5.108 31.079,5.346L33.853,14.435C32.785,14.8 31.669,14.99 30.489,14.99ZM34.666,0.555C33.072,0.254 31.669,0.095 30.457,0.095C29.261,0.095 27.874,0.254 26.279,0.555L19.263,23.318C19.598,23.508 20.028,23.667 20.554,23.778C21.081,23.889 21.607,23.937 22.149,23.937C23.026,23.937 23.744,23.81 24.27,23.54L25.753,18.607C27.299,19.083 28.878,19.336 30.489,19.336C32.115,19.336 33.678,19.099 35.161,18.607L36.692,23.54C37.218,23.81 37.935,23.937 38.812,23.937C39.371,23.937 39.913,23.889 40.455,23.778C40.997,23.667 41.428,23.508 41.762,23.318L34.666,0.555ZM4.895,19.083L4.895,15.212L14.032,15.212C14.335,14.594 14.495,13.88 14.495,13.039C14.495,12.278 14.335,11.564 14.032,10.898L4.895,10.898L4.895,4.806L14.989,4.806C15.324,4.045 15.483,3.284 15.483,2.57C15.483,1.824 15.324,1.079 14.989,0.333L0,0.333L0,23.556L15.324,23.556C15.659,22.794 15.818,22.033 15.818,21.319C15.818,20.574 15.659,19.828 15.324,19.083L4.895,19.083Z" style="fill:white;fill-rule:nonzero;"/>
</svg>
